HIERARCHY
ROOT pelvis
{
  OFFSET 0 100 0
  CHANNELS 6 Xposition Yposition Zposition Zrotation Xrotation Yrotation
  JOINT pelvis_right_femur
  {
    OFFSET -10.78128 -3.44521 -0.5502486
    CHANNELS 3 Zrotation Xrotation Yrotation
    JOINT right_femur_tibia
    {
      OFFSET -0.8047443 -44.0398 -0.1307829
      CHANNELS 3 Zrotation Xrotation Yrotation
      JOINT right_tibia_foot
      {
        OFFSET 3.006224 -47.83518 -5
        CHANNELS 3 Zrotation Xrotation Yrotation
        End Site
        {
          OFFSET 0 -5 15
        }
      }
    }
  }
  JOINT pelvis_left_femur
  {
    OFFSET 10.78128 -3.44521 -0.5502486
    CHANNELS 3 Zrotation Xrotation Yrotation
    JOINT left_femur_tibia
    {
      OFFSET 0.8047443 -44.0398 -0.1307829
      CHANNELS 3 Zrotation Xrotation Yrotation
      JOINT left_tibia_foot
      {
        OFFSET -4.370144 -48.10324 -4.275266
        CHANNELS 3 Zrotation Xrotation Yrotation
        End Site
        {
          OFFSET 0 -5 15
        }
      }
    }
  }
  JOINT pelvis_spine1
  {
    OFFSET 0 6.468898 -3.129235
    CHANNELS 3 Zrotation Xrotation Yrotation
    JOINT spine1
    {
      OFFSET 0 23.15396 4.99043
      CHANNELS 3 Zrotation Xrotation Yrotation
      JOINT spine2
      {
        OFFSET 0 20.79997 -5.064912
        CHANNELS 3 Zrotation Xrotation Yrotation
        JOINT neck
        {
          OFFSET 0 14.38658 9.616178
          CHANNELS 3 Zrotation Xrotation Yrotation
          End Site
          {
            OFFSET 0 20 0
          }
        }
      }
      JOINT right_manubrium
      {
        OFFSET -5.722621 16.35077 3.967754
        CHANNELS 3 Zrotation Xrotation Yrotation
        JOINT right_clavicle
        {
          OFFSET -13.16364 1.694482 -4.693211
          CHANNELS 3 Zrotation Xrotation Yrotation
          JOINT right_humerus
          {
            OFFSET -28.5034 -0.3100689 -2.792744
            CHANNELS 3 Zrotation Xrotation Yrotation
            JOINT right_radius
            {
              OFFSET -25.15693 0.02248979 -1.271978
              CHANNELS 3 Zrotation Xrotation Yrotation
              End Site
              {
                OFFSET -15 0 0
              }
            }
          }
        }
      }
      JOINT left_manubrium
      {
        OFFSET 5.722621 16.35077 3.967754
        CHANNELS 3 Zrotation Xrotation Yrotation
        JOINT left_clavicle
        {
          OFFSET 13.16364 1.694482 -4.693211
          CHANNELS 3 Zrotation Xrotation Yrotation
          JOINT left_humerus
          {
            OFFSET 29.39168 -1.063119 -2.237045
            CHANNELS 3 Zrotation Xrotation Yrotation
            JOINT left_radius
            {
              OFFSET 24.59957 -0.9528479 0.9047498
              CHANNELS 3 Zrotation Xrotation Yrotation
              End Site
              {
                OFFSET 15 -0 -0
              }
            }
          }
        }
      }
    }
  }
}
MOTION
Frames: 19
Frame Time: 0.0416666666667
0 103.5113 0 2.670844 -2.047403 0.1776826 0.9892815 -10.60497 7.299925 -0 36.161 -0 -4.882366 -18.97516 -3.239765 -8.136025 11.465 -23.55333 -0 4.646519 -0 7.893161 -16.20645 25.70844 -3.469475 -3.92526 5.816064 2.008214 10.96922 -7.090064 2.293835 22.324 5.28485 2.506527 -25.23244 9.75163 6.371953 -20.83382 10.98585 86.02892 35.71454 -19.3311 -0 0 16.74033 -5.278338 6.836251 2.74511 5.853462 -20.0674 -3.115637 -95.90224 26.71645 25.06121 0 0 -14.71744 11.157 17.46218 3.288135
0.2529254 103.5985 1.259573 1.860903 -1.236323 0.1546114 2.176443 -13.17713 8.431905 -0 37.34743 -0 -4.982567 -18.14908 -3.65116 -7.638799 11.22855 -23.65939 -0 4.628004 -0 6.901892 -17.32353 26.15394 -3.298738 -3.857648 5.745624 2.076341 10.88979 -7.160265 2.263713 22.20404 5.330271 2.54226 -25.32393 9.729919 6.332576 -20.65477 10.95875 86.09229 35.56374 -19.50442 -0 0 16.57905 -5.339982 6.939316 2.742174 5.926481 -20.15962 -2.983171 -95.89098 26.64876 24.97107 0 0 -14.68903 11.05816 17.43412 3.345796
0.5235513 103.0289 4.061102 0.549387 0.3956516 0.2258897 4.009138 -25.57238 4.22201 -0 23.2258 -0 -7.501151 -8.285056 -1.467239 -6.698983 12.49294 -18.36926 -0 4.972249 -0 8.195401 -19.99652 22.97089 -0.8934141 -1.546427 4.224748 3.391772 10.31019 -8.428785 1.155571 19.97379 7.134931 3.508479 -27.0687 9.415784 5.235817 -17.52385 11.36347 89.35902 35.74081 -23.50043 -0 0 9.641537 -7.67104 8.808567 5.057038 6.463224 -22.08292 -2.702943 -90.58314 23.69721 19.16537 0 0 -22.89949 11.22299 10.91646 2.878866
0.7849441 102.3675 7.089663 0.2179986 1.244613 0.3884891 4.748544 -28.19124 4.563293 -0 21.25582 -0 -7.233564 -6.940477 -1.353033 -6.562993 12.62555 -17.89162 -0 5.353458 -0 8.335048 -20.57853 22.71575 -1.03029 -1.973552 4.542636 3.102738 10.43387 -8.161981 1.371395 20.35135 6.726513 3.407652 -26.86739 9.372024 5.465805 -17.99593 11.19819 88.85777 35.48144 -23.13194 -0 0 10.88209 -7.118595 8.258147 4.482933 6.413092 -21.85955 -2.888325 -92.1922 24.97026 20.94952 0 0 -21.14561 10.54194 12.40611 3.949756
1.086378 101.8331 10.08904 -0.2171954 2.444618 0.6036996 6.074664 -30.29507 6.242659 -0 21.76734 -0 -6.599808 -6.983597 -1.323818 -6.570948 12.20161 -18.72523 -0 5.662435 -0 9.169946 -20.81455 23.69872 -0.874968 -2.119552 4.647572 2.995638 10.34521 -8.052186 1.476792 20.48076 6.481106 3.355855 -26.71795 9.265369 5.586294 -17.98799 11.03447 88.45028 35.04429 -22.91557 -0 0 11.56478 -6.864395 8.168643 4.078002 6.453062 -21.77408 -2.668603 -93.32546 25.65474 21.9918 0 0 -19.58955 9.841097 13.52362 4.724029
1.392833 101.2312 13.39263 -0.5000311 3.026613 0.901936 6.587839 -32.21369 6.147328 -0 19.62141 -0 -6.570403 -5.686142 -1.152741 -6.397043 12.59363 -18.13411 -0 6.346875 -0 8.793231 -21.19189 22.87759 -0.7323839 -2.191852 4.730205 2.871506 10.31752 -7.943036 1.557871 20.61365 6.267438 3.339357 -26.53399 9.125541 5.665387 -17.95198 10.89547 88.27879 34.7659 -22.9001 -0 0 11.91138 -6.674834 8.014787 3.810969 6.447509 -21.73461 -2.695592 -94.13438 26.40453 22.76827 0 0 -18.8099 9.107864 14.22222 5.680641
1.716564 100.6383 16.92501 -0.7998136 3.582341 1.276858 7.152022 -33.63716 6.34378 -0 18.36722 -0 -6.489133 -4.894575 -1.062558 -6.239112 12.8537 -17.8846 -0 7.049381 -0 8.323342 -21.44373 22.26017 -0.5560492 -2.186777 4.766009 2.791282 10.26178 -7.86672 1.601091 20.69176 6.117963 3.339616 -26.38593 8.987132 5.703314 -17.84092 10.78205 88.18497 34.55981 -22.93607 -0 0 12.05229 -6.568392 7.937283 3.646938 6.442147 -21.72435 -2.691594 -94.703 26.9892 23.2929 0 0 -18.33371 8.456824 14.67675 6.513985
2.050474 100.0386 20.79638 -1.078468 4.03205 1.738021 7.560432 -34.88719 6.201408 -0 16.60423 -0 -6.510403 -3.853213 -0.9663622 -6.029334 13.35727 -17.28881 -0 8.124709 -0 7.537278 -21.50959 21.14034 -0.406272 -2.19611 4.825099 2.666247 10.21129 -7.754757 1.665073 20.82124 5.935397 3.33909 -26.17848 8.837222 5.750538 -17.76394 10.64701 88.0875 34.40202 -22.95429 -0 0 12.23717 -6.406839 7.790906 3.454981 6.417196 -21.68427 -2.762853 -95.3366 27.74206 23.90417 0 0 -17.9363 7.71603 15.17476 7.520108
2.396048 99.45785 25.04892 -1.378357 4.423335 2.286374 7.941795 -35.82663 6.029041 -0 14.97979 -0 -6.56129 -2.860737 -0.9149024 -5.775639 13.93856 -16.61599 -0 9.593182 -0 6.445287 -21.35368 19.7753 -0.2512407 -2.174137 4.873086 2.540034 10.14519 -7.642813 1.718572 20.94566 5.774507 3.34977 -25.96234 8.683465 5.783565 -17.66857 10.5173 88.01471 34.30517 -22.97364 -0 0 12.35724 -6.276142 7.661283 3.305648 6.38735 -21.64469 -2.836749 -95.89191 28.48735 24.44191 0 0 -17.69634 6.969788 15.58656 8.543915
2.755742 98.9413 29.73647 -1.73565 4.769605 2.917687 8.359557 -36.37889 5.887247 -0 13.63565 -0 -6.656788 -1.951352 -0.9106962 -5.452975 14.56756 -15.87346 -0 11.71821 -0 4.95086 -20.8448 18.11964 -0.09922758 -2.13826 4.92576 2.381982 10.06226 -7.51124 1.77682 21.09337 5.613913 3.374852 -25.70071 8.517324 5.815795 -17.57446 10.37655 87.94481 34.26775 -22.97625 -0 0 12.47715 -6.149747 7.517944 3.166872 6.351599 -21.59168 -2.937266 -96.45655 29.34266 24.99707 0 0 -17.57503 6.132445 15.99343 9.714038
3.129828 98.55345 34.91536 -2.161299 5.007086 3.604627 8.809726 -36.29119 5.782853 -0 12.75291 -0 -6.827023 -1.190365 -0.9716838 -5.031115 15.17081 -15.02479 -0 14.89493 -0 2.883739 -19.79136 16.10594 0.06370092 -2.064514 4.968201 2.210602 9.951367 -7.37571 1.822792 21.23895 5.483526 3.421688 -25.4155 8.340907 5.834505 -17.4609 10.24158 87.88938 34.30771 -22.96246 -0 0 12.54824 -6.087661 7.410366 3.084022 6.315784 -21.53882 -3.025079 -96.95769 30.22713 25.49364 0 0 -17.61241 5.235134 16.33171 10.96919
3.519249 98.40025 40.60323 -2.662966 5.046856 4.279927 9.294661 -35.14674 5.772018 -0 12.71014 -0 -7.123013 -0.8010319 -1.094919 -4.491409 15.47836 -14.11222 -0 19.67475 -0 0.1511402 -17.91618 13.81124 0.2445121 -1.943343 5.000482 2.019249 9.796192 -7.231323 1.854775 21.38628 5.387966 3.493975 -25.09261 8.148423 5.836536 -17.3235 10.11169 87.83331 34.44377 -22.90668 -0 0 12.58263 -6.119569 7.36286 3.070188 6.280024 -21.48005 -3.076545 -97.40432 31.16379 25.93959 0 0 -17.79764 4.235042 16.61887 12.35892
3.92692 98.61989 46.72115 -3.18101 4.738806 4.810483 9.707024 -32.39787 5.831939 -0 13.73803 -0 -7.594061 -1.114198 -1.236697 -3.86692 14.9158 -13.18117 -0 26.65698 -0 -3.12356 -14.99095 11.49695 0.4446144 -1.757824 5.01945 1.817237 9.585119 -7.081216 1.862788 21.52756 5.344366 3.58963 -24.73839 7.942559 5.80999 -17.16062 10.00075 87.7637 34.71045 -22.76982 -0 0 12.56933 -6.311147 7.427668 3.167164 6.240294 -21.4112 -3.049685 -97.74792 32.09172 26.29265 0 0 -18.12116 3.156365 16.82976 13.83858
4.362973 99.32484 53.03366 -3.528815 3.969205 5.024316 9.7913 -27.7658 5.814026 -0 15.38907 -0 -8.19199 -2.444008 -1.291918 -3.316265 12.61085 -12.28677 -0 35.80873 -0 -6.293493 -11.25712 9.652168 0.6528083 -1.50415 5.033712 1.601322 9.304148 -6.914883 1.849501 21.67393 5.35261 3.698617 -24.34064 7.729768 5.749701 -16.98807 9.911045 87.63697 35.14169 -22.47882 -0 0 12.54781 -6.704867 7.647648 3.391121 6.186664 -21.30956 -2.907517 -97.98973 32.99248 26.56094 0 0 -18.51576 2.005799 16.99741 15.39197
4.836594 100.4874 59.2456 -3.421129 2.789789 4.843896 9.293848 -21.93564 5.498369 -0 16.26391 -0 -8.669269 -4.528674 -1.195612 -3.055591 8.220388 -11.37506 -0 45.58102 -0 -8.235121 -7.734623 8.659638 0.8425843 -1.199294 5.057151 1.368367 8.949606 -6.721771 1.828152 21.8398 5.403959 3.804925 -23.8955 7.532554 5.659951 -16.83787 9.836947 87.39944 35.74539 -21.96421 -0 0 12.58683 -7.295295 8.044224 3.721279 6.110916 -21.14855 -2.632887 -98.15838 33.85246 26.77596 0 0 -18.88162 0.8212064 17.18298 16.96611
5.321965 101.9274 65.25269 -2.759415 1.319046 4.376164 8.346552 -16.41532 4.863535 -0 15.5275 -0 -8.82949 -6.235781 -1.089705 -3.039569 3.036433 -10.27411 -0 53.537 -0 -8.23039 -5.463889 8.579497 0.9933399 -0.8768758 5.097491 1.11055 8.515408 -6.498073 1.822087 22.03623 5.48766 3.900823 -23.40363 7.384287 5.558188 -16.73346 9.753841 87.01539 36.48599 -21.21344 -0 0 12.76294 -7.992094 8.602649 4.075721 6.0199 -20.91158 -2.238054 -98.33194 34.73196 26.99839 0 0 -19.14573 -0.3962773 17.47876 18.56071
5.756945 103.4591 71.13195 -1.800481 -0.4382536 3.771524 7.352884 -11.87428 4.095472 -0 13.96766 -0 -8.823816 -6.853614 -1.177298 -2.981659 -1.356032 -8.998254 -0 58.61553 -0 -6.924781 -4.49456 9.34241 1.095588 -0.561645 5.142592 0.8394222 8.029455 -6.276288 1.82938 22.23271 5.636622 3.999801 -22.90718 7.319658 5.455709 -16.67882 9.665906 86.5495 37.31178 -20.33239 -0 0 13.04608 -8.76784 9.326246 4.417443 5.938965 -20.63898 -1.766052 -98.4718 35.60501 27.17965 0 0 -19.38303 -1.609238 17.84673 20.12799
6.103751 104.9505 76.91036 -0.8327551 -2.340198 3.121026 6.470094 -7.696955 3.362038 -0 12.41511 -0 -8.805643 -7.05861 -1.399993 -2.749145 -5.143965 -7.848666 -0 61.07972 -0 -5.490432 -4.320383 10.72126 1.135504 -0.2680793 5.176177 0.5939037 7.587191 -6.11542 1.812741 22.36398 5.912676 4.118042 -22.48922 7.356739 5.347743 -16.67983 9.630464 86.15583 38.16754 -19.50348 -0 0 13.29801 -9.757311 10.24927 4.82443 5.892246 -20.42441 -1.287513 -98.37934 36.24553 27.15028 0 0 -19.7413 -2.670355 18.08771 21.47367
6.372441 106.2531 82.5554 0.02160919 -4.082371 2.489592 5.665713 -3.327443 2.74401 -0 11.04065 -0 -8.767038 -7.640057 -1.557347 -2.305749 -9.105021 -6.966447 -0 60.76282 -0 -4.374644 -4.540641 12.44645 1.098861 -0.02161196 5.193546 0.4159988 7.304334 -6.055191 1.741718 22.38593 6.324497 4.248757 -22.21708 7.483563 5.231412 -16.74256 9.699793 85.9702 38.96216 -18.89658 -0 0 13.39808 -11.0668 11.33897 5.378379 5.887538 -20.34606 -0.8911894 -97.90866 36.40782 26.79772 0 0 -20.26354 -3.398521 18.0357 22.3624
